HIERARCHY
ROOT Hips
{
	OFFSET 0.000000 8.830580 0.000000
	CHANNELS 6 Xposition Yposition Zposition Zrotation Yrotation Xrotation 
	JOINT Spine
	{
		OFFSET 0.000000 0.010000 0.000000
		CHANNELS 3 Zrotation Yrotation Xrotation
		JOINT Spine1
		{
			OFFSET 0.000000 2.459130 0.000000
			CHANNELS 3 Zrotation Yrotation Xrotation
			JOINT Neck
			{
				OFFSET 0.000000 2.484630 0.000000
				CHANNELS 3 Zrotation Yrotation Xrotation
				JOINT Head_virtual
				{
					OFFSET 0.000000 0.000000 0.000000
					CHANNELS 3 Zrotation Yrotation Xrotation
					JOINT Head
					{
						OFFSET 0.000000 0.927525 0.000000
						CHANNELS 3 Zrotation Yrotation Xrotation
						End Site
						{
							OFFSET 0.000000 0.000000 0.000000
						}
					}
				}
				JOINT LeftUpArm_virtual
				{
					OFFSET 0.000000 0.000000 0.000000
					CHANNELS 3 Zrotation Yrotation Xrotation
					JOINT LeftUpArm
					{
						OFFSET 1.248820 0.000000 0.000000
						CHANNELS 3 Zrotation Yrotation Xrotation
						JOINT LeftForeArm
						{
							OFFSET 2.597580 0.000000 0.000000
							CHANNELS 3 Zrotation Yrotation Xrotation
							JOINT LeftHand
							{
								OFFSET 2.455420 0.000000 0.000000
								CHANNELS 3 Zrotation Yrotation Xrotation
								End Site
								{
									OFFSET 0.000000 0.000000 0.000000
								}
							}
						}
					}
				}
				JOINT RightUpArm_virtual
				{
					OFFSET -0.000000 -0.000000 -0.000000
					CHANNELS 3 Zrotation Yrotation Xrotation
					JOINT RightUpArm
					{
						OFFSET -1.248820 -0.000000 -0.000000
						CHANNELS 3 Zrotation Yrotation Xrotation
						JOINT RightForeArm
						{
							OFFSET -2.597580 -0.000000 -0.000000
							CHANNELS 3 Zrotation Yrotation Xrotation
							JOINT RightHand
							{
								OFFSET -2.455420 -0.000000 -0.000000
								CHANNELS 3 Zrotation Yrotation Xrotation
								End Site
								{
									OFFSET 0.000000 0.000000 0.000000
								}
							}
						}
					}
				}
			}
		}
	}
	JOINT LeftUpLeg
	{
		OFFSET 1.271939 0.000000 0.000000
		CHANNELS 3 Zrotation Yrotation Xrotation
		JOINT LeftLowLeg
		{
			OFFSET 0.000000 -4.342910 0.000000
			CHANNELS 3 Zrotation Yrotation Xrotation
			JOINT LeftFoot
			{
				OFFSET 0.000000 -4.487670 0.000000
				CHANNELS 3 Zrotation Yrotation Xrotation
				JOINT LeftToeBase
				{
					OFFSET 0.000000 0.000000 1.515070
					CHANNELS 3 Zrotation Yrotation Xrotation
					End Site
					{
						OFFSET 0.000000 0.000000 0.000000
					}
				}
			}
		}
	}
	JOINT RightUpLeg
	{
		OFFSET -1.271939 0.000000 0.000000
		CHANNELS 3 Zrotation Yrotation Xrotation
		JOINT RightLowLeg
		{
			OFFSET 0.000000 -4.342910 0.000000
			CHANNELS 3 Zrotation Yrotation Xrotation
			JOINT RightFoot
			{
				OFFSET 0.000000 -4.487670 0.000000
				CHANNELS 3 Zrotation Yrotation Xrotation
				JOINT RightToeBase
				{
					OFFSET 0.000000 0.000000 1.515070
					CHANNELS 3 Zrotation Yrotation Xrotation
					End Site
					{
						OFFSET 0.000000 0.000000 0.000000
					}
				}
			}
		}
	}
}
MOTION
Frames: 9
Frame Time: 0.041667
-16.880944 4.399094 41.361226 173.316309 11.647420 -177.674679 9.662501 22.626725 -7.871757 -2.711302 -37.584519 22.429250 0.000000 0.000000 0.000000 -19.216152 -27.327868 19.035808 -1.792756 25.602987 -92.698906 -20.495399 -3.973180 -8.466510 13.384300 -43.419201 -39.822300 -180.000000 -68.127998 180.000000 48.178902 -28.764500 6.439460 21.886900 7.125930 -0.940310 6.397890 56.942101 -25.891600 -180.000000 69.073998 -180.000000 -51.035301 35.131199 -1.433870 -5.563932 -4.960933 -84.242256 0.000000 0.000000 113.969002 -9.027466 1.685272 -18.947809 0.000000 0.000000 -12.696440 -15.537785 5.279929 -19.528702 0.000000 0.000000 124.955002 34.177713 24.728026 6.820629 0.000000 0.000000 -69.107201 
-16.849610 4.396231 41.436392 173.116343 10.669324 -176.773334 9.957606 22.760169 -7.027206 -4.776274 -38.003985 23.053217 0.000000 0.000000 0.000000 -18.211783 -26.945978 18.450112 -1.791372 26.859150 -93.306666 -20.214600 -4.078700 -7.450640 14.767000 -43.924599 -41.605499 -180.000000 -68.583000 180.000000 47.696701 -29.149799 6.911640 21.892099 6.888790 -1.076820 4.644500 56.811901 -27.934200 -180.000000 69.337997 -180.000000 -50.461300 35.197300 -0.856283 -5.436521 -5.226303 -85.542982 0.000000 0.000000 113.265999 -8.709522 1.031985 -18.030724 0.000000 0.000000 -13.043550 -15.395693 4.374945 -20.721845 0.000000 0.000000 125.512001 34.665025 25.217273 7.089859 0.000000 0.000000 -67.797501 
-16.814402 4.393785 41.503852 172.908749 9.700613 -175.959936 10.233959 22.977192 -6.191488 -6.815114 -38.296366 23.713629 0.000000 0.000000 0.000000 -16.858144 -26.993752 17.903638 -2.126034 28.215202 -94.157194 -19.867901 -4.186610 -6.814950 15.980600 -44.698399 -42.755402 -180.000000 -68.832001 180.000000 47.081600 -29.335501 8.051960 21.873600 6.830630 -2.174590 4.643610 56.102299 -28.330601 180.000000 69.219002 180.000000 -49.795300 35.160000 0.460471 -5.346043 -5.426400 -86.684939 0.000000 0.000000 112.572998 -8.486420 0.304296 -17.187151 0.000000 0.000000 -13.154950 -15.213706 3.491930 -21.810965 0.000000 0.000000 126.028000 35.097952 25.646106 7.540613 0.000000 0.000000 -67.868698 
-16.776182 4.389362 41.564618 172.765914 8.788662 -175.138530 10.245580 22.995800 -5.441228 -7.560963 -38.554526 23.565028 0.000000 0.000000 0.000000 -16.413122 -26.781393 17.542164 -1.866262 28.702288 -94.439495 -19.410999 -4.170170 -7.218810 14.938300 -45.681198 -41.913601 -180.000000 -68.910004 180.000000 46.813801 -29.641100 8.894640 21.980101 6.179610 -1.268850 1.092820 56.375099 -32.040298 180.000000 69.734001 180.000000 -49.475300 35.218498 0.993551 -5.221718 -5.541398 -87.826145 0.000000 0.000000 111.982002 -8.296569 -0.430054 -16.355874 0.000000 0.000000 -13.093750 -14.929117 2.630270 -22.873663 0.000000 0.000000 126.502998 35.502227 25.981036 7.906804 0.000000 0.000000 -67.974499 
-16.734918 4.387160 41.614930 172.617175 7.958648 -174.581610 10.260915 23.049203 -4.597468 -8.223830 -38.782785 23.335206 0.000000 0.000000 0.000000 -16.058527 -26.756976 17.645060 -1.844306 29.200784 -94.888854 -19.243601 -4.219970 -7.610210 14.166300 -46.588501 -40.864498 180.000000 -68.999001 -180.000000 46.966202 -29.900299 8.643560 21.830601 6.113470 -1.569170 0.218407 55.708401 -32.960400 180.000000 69.775002 180.000000 -49.027901 34.964802 1.502750 -5.182155 -5.545489 -88.627915 0.000000 0.000000 111.447998 -7.952355 -1.013134 -15.538591 0.000000 0.000000 -13.109840 -14.586557 1.909274 -23.595694 0.000000 0.000000 126.899002 36.050899 26.241424 8.244051 0.000000 0.000000 -66.640701 
-16.694031 4.386450 41.658007 172.471256 7.251157 -173.984947 10.239648 23.191727 -3.914137 -8.870528 -38.914559 22.983370 0.000000 0.000000 0.000000 -15.738788 -26.822369 18.051336 -1.789293 29.721912 -95.249620 -19.264400 -4.358720 -6.596050 15.028300 -47.045101 -41.518700 180.000000 -69.165001 -180.000000 47.245201 -30.186899 8.223560 22.097700 5.949800 -0.502869 -2.802950 55.032501 -36.025299 180.000000 70.028999 180.000000 -49.270199 34.985600 1.056950 -5.194018 -5.475154 -89.416131 0.000000 0.000000 110.960999 -7.607770 -1.508949 -14.810654 0.000000 0.000000 -12.889830 -14.248858 1.235089 -24.332920 0.000000 0.000000 127.253998 36.466150 26.449574 8.461974 0.000000 0.000000 -65.264198 
-16.654271 4.388741 41.695279 172.327031 6.589897 -173.405239 10.136321 23.262732 -3.483363 -9.483050 -39.001067 23.015056 0.000000 0.000000 0.000000 -15.362003 -26.868753 17.977510 -1.493392 30.036606 -95.308947 -19.556299 -4.422860 -5.548640 16.745701 -47.326801 -42.916401 180.000000 -69.393997 -180.000000 47.555801 -30.646099 8.063630 21.745300 5.743210 -1.208040 -2.427260 54.663898 -35.763500 -180.000000 70.195000 -180.000000 -49.402802 35.847000 0.762666 -5.207849 -5.415261 -90.111117 0.000000 0.000000 110.471001 -7.275535 -1.989748 -14.166021 0.000000 0.000000 -12.687190 -13.883612 0.566754 -25.011308 0.000000 0.000000 127.480003 36.675149 26.626502 8.507038 0.000000 0.000000 -65.544300 
-16.612538 4.392231 41.729029 172.159267 6.100600 -172.833638 9.959932 23.382611 -3.095375 -10.162029 -39.024864 23.093078 0.000000 0.000000 0.000000 -14.863520 -27.020832 17.864480 -1.474319 30.433448 -95.493825 -19.275499 -4.440980 -5.735270 16.389299 -47.807899 -42.354500 180.000000 -69.195999 -180.000000 47.241001 -30.736099 8.537670 21.421499 5.659650 -1.971460 -1.718700 54.196602 -35.190201 -180.000000 70.130997 -180.000000 -50.009102 36.700001 0.339461 -5.268320 -5.159269 -90.776376 0.000000 0.000000 110.054001 -6.989980 -2.556948 -13.533231 0.000000 0.000000 -12.710190 -13.495466 -0.005052 -25.719700 0.000000 0.000000 127.707001 37.000805 26.621655 8.600647 0.000000 0.000000 -64.645699 
-16.568519 4.395788 41.761484 171.983371 5.736925 -172.243908 9.573908 23.416531 -2.833374 -10.554533 -39.052475 23.132764 0.000000 0.000000 0.000000 -14.609037 -26.977736 17.599590 -1.181018 30.584026 -95.377882 -19.512199 -4.336230 -4.913730 17.971901 -47.873501 -43.683399 180.000000 -69.362999 -180.000000 47.445801 -30.993700 8.671580 21.277100 5.384420 -1.888960 -2.615980 54.213501 -36.126400 180.000000 70.278999 180.000000 -50.266998 37.154301 0.678172 -5.327846 -4.777865 -91.441833 0.000000 0.000000 109.672997 -6.731534 -3.198318 -12.941107 0.000000 0.000000 -12.859920 -13.049387 -0.561154 -26.462267 0.000000 0.000000 127.924004 37.251008 26.364415 8.485774 0.000000 0.000000 -65.714001 
